<svg xmlns="http://www.w3.org/2000/svg" xmlns:xlink="http://www.w3.org/1999/xlink" width="127" height="127" viewBox="0 0 127 127">
  <defs>
    <linearGradient id="linear-gradient" x1="-0.073" x2="1.073" y2="1.052" gradientUnits="objectBoundingBox">
      <stop offset="0" stop-color="#6ad87b"/>
      <stop offset="1" stop-color="#3bd452"/>
    </linearGradient>
  </defs>
  <g id="Group_64" data-name="Group 64" transform="translate(-930.764 -2297.588)">
    <rect id="Rectangle_366" data-name="Rectangle 366" width="127" height="127" rx="13" transform="translate(930.764 2297.588)" fill="url(#linear-gradient)"/>
    <path id="Path_691" data-name="Path 691" d="M19.159,29.455h6.864a3.432,3.432,0,1,0,0-6.864H19.159a3.432,3.432,0,1,0,0,6.864ZM67.206,8.864H39.751V5.432a3.432,3.432,0,1,0-6.864,0V8.864H5.432A3.432,3.432,0,0,0,2,12.3V46.614a10.3,10.3,0,0,0,10.3,10.3H28.048l-7.893,7.859a3.446,3.446,0,1,0,4.873,4.873l7.859-7.893v5.457a3.432,3.432,0,1,0,6.864,0V61.749l7.859,7.893a3.446,3.446,0,1,0,4.873-4.873L44.59,56.91H60.342a10.3,10.3,0,0,0,10.3-10.3V12.3A3.432,3.432,0,0,0,67.206,8.864ZM63.774,46.614a3.432,3.432,0,0,1-3.432,3.432H12.3a3.432,3.432,0,0,1-3.432-3.432V15.728h54.91ZM19.159,43.183H39.751a3.432,3.432,0,1,0,0-6.864H19.159a3.432,3.432,0,0,0,0,6.864Z" transform="translate(957.708 2324.526)" fill="#fff"/>
  </g>
</svg>
