<svg xmlns="http://www.w3.org/2000/svg" xmlns:xlink="http://www.w3.org/1999/xlink" width="689.409" height="573.476" viewBox="0 0 689.409 573.476">
  <defs>
    <clipPath id="clip-path">
      <rect id="Rectangle_404" data-name="Rectangle 404" width="22.066" height="21.124" fill="#fa7869"/>
    </clipPath>
    <clipPath id="clip-path-2">
      <path id="Path_875" data-name="Path 875" d="M370.774,129.522s2-13.991-6.321-22.976-26.974-2-31.3,5.671.341,17.63,2,19.3,2,3.25,0,6.646-2.665,3.672-.666,4.664a17.452,17.452,0,0,0,3.25,1.332s6,7.328,7.653,9.993a5.07,5.07,0,0,0,6.987,1.625c2-1.332,11.374-9.652,11.374-9.652l13.974,5.655a34.12,34.12,0,0,0,0-10.984C376.77,135.177,375.1,129.522,370.774,129.522Z" transform="translate(-331.37 -102.318)" fill="#d9d9d9" stroke="#263238" stroke-linecap="round" stroke-linejoin="round" stroke-width="1"/>
    </clipPath>
  </defs>
  <g id="Design_community-bro" data-name="Design community-bro" transform="translate(-47.858 -83.992)">
    <g id="freepik--background-simple--inject-2" transform="translate(70.258 83.992)">
      <path id="Path_844" data-name="Path 844" d="M68.915,313.72s-36.041,92.3,16.932,164.816,142.993,70.522,212.865,93.336c36.561,11.943,59.228,44.507,90.833,64.331C490.6,699.574,642.383,610.788,677.156,508.256c30.077-88.77,9.165-171.819-62.69-258.639S495.506,98.629,366.39,85.012,120.409,196.6,68.915,313.72Z" transform="translate(-56.941 -83.992)" fill="#fa7869"/>
      <path id="Path_845" data-name="Path 845" d="M68.915,313.72s-36.041,92.3,16.932,164.816,142.993,70.522,212.865,93.336c36.561,11.943,59.228,44.507,90.833,64.331C490.6,699.574,642.383,610.788,677.156,508.256c30.077-88.77,9.165-171.819-62.69-258.639S495.506,98.629,366.39,85.012,120.409,196.6,68.915,313.72Z" transform="translate(-56.941 -83.992)" fill="#fff" opacity="0.75"/>
    </g>
    <g id="freepik--Plants--inject-2" transform="translate(47.858 208.656)">
      <path id="Path_846" data-name="Path 846" d="M111.136,341.591c-2.177,6.955-5.427,1.771-7.328-26.486-.877-13.259-2.194-40.363,13-35.618,14.527,4.55-.682,46.05-.682,46.05Zm20.425,2.324s27.851-34.3,15.583-43.337c-12.756-9.359-20.328,16.639-23.789,29.46-7.377,27.347-6,33.311-1.625,27.429Zm8.791,28s26.275-22.2,18.2-30.874c-8.4-9.035-17.874,9.75-22.456,19.093-9.6,19.84-9.408,24.6-5.265,20.734Zm9.912,27.8s26.275-22.2,18.215-30.874c-8.4-9.018-17.972,9.75-22.473,19.109-9.6,19.84-9.408,24.585-5.249,20.718ZM96.755,346.563S56,329.453,50.786,343.768c-5.411,14.884,21.725,14.819,35,14.624,28.306-.6,33.636-3.607,26.779-6.094Zm7.361,21.92s-43.337-8.645-45.6,6.4C56.165,390.566,82.749,385.106,95.7,382.2c27.624-6.223,32.255-10.237,25.04-11.374Zm11.716,23.61s-36.853-6.321-38.413,6.5c-1.625,13.308,20.718,8.125,31.6,5.313,23.236-5.9,27.039-9.392,20.929-10.139Zm7.3,19.678s-35.976-10.188-38.9,2.356c-3.022,13,19.759,10.237,30.874,8.645,23.724-3.412,27.884-6.5,21.871-7.865Zm-31.8-100.144s-20.035-48.179-37.373-37.682c-18.037,10.92,5.557,31.442,17.322,41.224,25.089,20.88,32.352,21.871,28.7,14.169Z" transform="translate(-40.511 -90.885)" fill="#fa7869"/>
      <path id="Path_847" data-name="Path 847" d="M111.136,341.591c-2.177,6.955-5.427,1.771-7.328-26.486-.877-13.259-2.194-40.363,13-35.618,14.527,4.55-.682,46.05-.682,46.05Zm20.425,2.324s27.851-34.3,15.583-43.337c-12.756-9.359-20.328,16.639-23.789,29.46-7.377,27.347-6,33.311-1.625,27.429Zm8.791,28s26.275-22.2,18.2-30.874c-8.4-9.035-17.874,9.75-22.456,19.093-9.6,19.84-9.408,24.6-5.265,20.734Zm9.912,27.8s26.275-22.2,18.215-30.874c-8.4-9.018-17.972,9.75-22.473,19.109-9.6,19.84-9.408,24.585-5.249,20.718ZM96.755,346.563S56,329.453,50.786,343.768c-5.411,14.884,21.725,14.819,35,14.624,28.306-.6,33.636-3.607,26.779-6.094Zm7.361,21.92s-43.337-8.645-45.6,6.4C56.165,390.566,82.749,385.106,95.7,382.2c27.624-6.223,32.255-10.237,25.04-11.374Zm11.716,23.61s-36.853-6.321-38.413,6.5c-1.625,13.308,20.718,8.125,31.6,5.313,23.236-5.9,27.039-9.392,20.929-10.139Zm7.3,19.678s-35.976-10.188-38.9,2.356c-3.022,13,19.759,10.237,30.874,8.645,23.724-3.412,27.884-6.5,21.871-7.865Zm-31.8-100.144s-20.035-48.179-37.373-37.682c-18.037,10.92,5.557,31.442,17.322,41.224,25.089,20.88,32.352,21.871,28.7,14.169Z" transform="translate(-40.511 -90.885)" fill="#fff" opacity="0.4"/>
      <path id="Path_848" data-name="Path 848" d="M57,283.84s44.052,45.5,55.654,69.124c13.324,27.152,23.318,58.887,26.974,84.951" transform="translate(-34.505 -83.767)" fill="none" stroke="#fa7869" stroke-linecap="round" stroke-linejoin="round" stroke-width="1.252"/>
      <line id="Line_54" data-name="Line 54" y1="47.009" x2="1.706" transform="translate(68.838 206.914)" fill="none" stroke="#fa7869" stroke-linecap="round" stroke-linejoin="round" stroke-width="1.252"/>
      <line id="Line_55" data-name="Line 55" y1="40.786" x2="16.867" transform="translate(78.133 228.412)" fill="none" stroke="#fa7869" stroke-linecap="round" stroke-linejoin="round" stroke-width="1.252"/>
      <line id="Line_56" data-name="Line 56" x1="42.849" y1="5.086" transform="translate(31.855 258.554)" fill="none" stroke="#fa7869" stroke-linecap="round" stroke-linejoin="round" stroke-width="1.252"/>
      <line id="Line_57" data-name="Line 57" y1="30.289" x2="22.44" transform="translate(87.882 260.455)" fill="none" stroke="#fa7869" stroke-linecap="round" stroke-linejoin="round" stroke-width="1.252"/>
      <line id="Line_58" data-name="Line 58" x1="31.848" y2="2.356" transform="translate(51.809 281.726)" fill="none" stroke="#fa7869" stroke-linecap="round" stroke-linejoin="round" stroke-width="1.252"/>
      <line id="Line_59" data-name="Line 59" x1="24.325" y2="2.99" transform="translate(67.376 304.312)" fill="none" stroke="#fa7869" stroke-linecap="round" stroke-linejoin="round" stroke-width="1.252"/>
      <line id="Line_60" data-name="Line 60" y1="18.508" x2="11.634" transform="translate(97.924 300.136)" fill="none" stroke="#fa7869" stroke-linecap="round" stroke-linejoin="round" stroke-width="1.252"/>
      <line id="Line_61" data-name="Line 61" x1="28.647" y2="0.942" transform="translate(70.772 325.046)" fill="none" stroke="#fa7869" stroke-linecap="round" stroke-linejoin="round" stroke-width="1.252"/>
      <path id="Path_849" data-name="Path 849" d="M460.715,273.657c-8.125,4.4-6.5-3.25,16.867-30.581,10.952-12.853,33.831-38.657,43.385-20.929,9.165,17.045-41.517,41.289-41.517,41.289Zm16.493,20.263s55.816-6.5,52.68-25.56c-3.25-19.889-33.295-2.892-47.838,5.687-31,18.313-35.017,24.959-25.885,23.448Zm-16.85,33.262s43.613,3.152,43.97-11.911c.374-15.664-25.04-7.036-37.373-2.567-26.356,9.506-30.4,14.007-23.188,14.169Zm-15.681,34.123s43.613,3.152,43.97-11.911c.39-15.664-25.04-7.036-37.373-2.584-26.356,9.522-30.4,14.023-23.188,14.186Zm-1.479-95.87s-21.888-51.754-39.339-43.369c-18.15,8.726,6.5,32.775,18.914,44.3,26.291,24.6,33.8,26.6,29.769,18.264ZM430.41,291.9s-31.735-46.359-47.123-34.676c-16.054,12.171,13,30.874,27.331,39.664,30.662,18.882,38.429,19.353,32.823,11.959Zm-10.3,31.881s-27.916-38.478-40.623-28.241c-13.308,10.659,11.667,25.755,24.033,32.9,26.356,15.274,32.921,15.486,28.014,9.376ZM409.286,348.16s-23.675-41.224-37.471-32.4c-14.348,9.181,8.888,26.844,20.409,35.277,24.585,17.972,31.1,18.882,26.876,12.284Zm59.992-119.351s24.553-61.617-.52-67.467c-26.113-6.093-22.879,33.522-20.864,52.875,4.29,41.273,10.042,48.748,13.5,38.364Z" transform="translate(159.394 -160.712)" fill="#fa7869"/>
      <path id="Path_850" data-name="Path 850" d="M460.715,273.657c-8.125,4.4-6.5-3.25,16.867-30.581,10.952-12.853,33.831-38.657,43.385-20.929,9.165,17.045-41.517,41.289-41.517,41.289Zm16.493,20.263s55.816-6.5,52.68-25.56c-3.25-19.889-33.295-2.892-47.838,5.687-31,18.313-35.017,24.959-25.885,23.448Zm-16.85,33.262s43.613,3.152,43.97-11.911c.374-15.664-25.04-7.036-37.373-2.567-26.356,9.506-30.4,14.007-23.188,14.169Zm-15.681,34.123s43.613,3.152,43.97-11.911c.39-15.664-25.04-7.036-37.373-2.584-26.356,9.522-30.4,14.023-23.188,14.186Zm-1.479-95.87s-21.888-51.754-39.339-43.369c-18.15,8.726,6.5,32.775,18.914,44.3,26.291,24.6,33.8,26.6,29.769,18.264ZM430.41,291.9s-31.735-46.359-47.123-34.676c-16.054,12.171,13,30.874,27.331,39.664,30.662,18.882,38.429,19.353,32.823,11.959Zm-10.3,31.881s-27.916-38.478-40.623-28.241c-13.308,10.659,11.667,25.755,24.033,32.9,26.356,15.274,32.921,15.486,28.014,9.376ZM409.286,348.16s-23.675-41.224-37.471-32.4c-14.348,9.181,8.888,26.844,20.409,35.277,24.585,17.972,31.1,18.882,26.876,12.284Zm59.992-119.351s24.553-61.617-.52-67.467c-26.113-6.093-22.879,33.522-20.864,52.875,4.29,41.273,10.042,48.748,13.5,38.364Z" transform="translate(159.394 -160.712)" fill="#fff" opacity="0.4"/>
      <path id="Path_851" data-name="Path 851" d="M449.2,175.58s-.325,80.5-10.773,112.3c-11.992,36.544-31.085,74.275-50.909,101.233" transform="translate(172.045 -151.421)" fill="none" stroke="#fa7869" stroke-linecap="round" stroke-linejoin="round" stroke-width="1.252"/>
      <line id="Line_62" data-name="Line 62" y1="41.241" x2="43.304" transform="translate(615.592 73.086)" fill="none" stroke="#fa7869" stroke-linecap="round" stroke-linejoin="round" stroke-width="1.252"/>
      <line id="Line_63" data-name="Line 63" y1="22.099" x2="51.575" transform="translate(610.473 114.359)" fill="none" stroke="#fa7869" stroke-linecap="round" stroke-linejoin="round" stroke-width="1.252"/>
      <line id="Line_64" data-name="Line 64" x1="34.465" y1="42.687" transform="translate(577.829 85.679)" fill="none" stroke="#fa7869" stroke-linecap="round" stroke-linejoin="round" stroke-width="1.252"/>
      <line id="Line_65" data-name="Line 65" y1="7.621" x2="47.301" transform="translate(600.22 157.094)" fill="none" stroke="#fa7869" stroke-linecap="round" stroke-linejoin="round" stroke-width="1.252"/>
      <line id="Line_66" data-name="Line 66" x1="31.069" y1="26.129" transform="translate(573.311 126.643)" fill="none" stroke="#fa7869" stroke-linecap="round" stroke-linejoin="round" stroke-width="1.252"/>
      <line id="Line_67" data-name="Line 67" x1="24.78" y1="18.882" transform="translate(566.844 161.579)" fill="none" stroke="#fa7869" stroke-linecap="round" stroke-linejoin="round" stroke-width="1.252"/>
      <line id="Line_68" data-name="Line 68" y1="6.5" x2="27.006" transform="translate(584.572 192.517)" fill="none" stroke="#fa7869" stroke-linecap="round" stroke-linejoin="round" stroke-width="1.252"/>
      <line id="Line_69" data-name="Line 69" x1="26.909" y1="24.585" transform="translate(553.341 181.582)" fill="none" stroke="#fa7869" stroke-linecap="round" stroke-linejoin="round" stroke-width="1.252"/>
      <path id="Path_852" data-name="Path 852" d="M291.13,238.486c-3.055,4.664-4.355.163.211-20.994,2.129-9.928,6.857-30.11,16.98-23.448,9.75,6.4-10.188,33.685-10.188,33.685Zm14.527,6.012s27.624-19.353,20.572-28.55c-7.41-9.587-18.443,7.962-23.691,16.655-11.163,18.54-11.374,23.2-7,19.792Zm.569,22.424s23.984-10.789,19.873-18.849c-4.274-8.417-15.258,3.412-20.523,9.295-11.228,12.561-12.089,16.087-8.222,14.121Zm1.43,22.521s23.984-10.789,19.873-18.865c-4.274-8.4-15.258,3.429-20.523,9.311-11.228,12.561-12.089,16.087-8.222,14.121Zm-28.127-50.373s-26.356-21.124-33.2-11.716c-7.117,9.75,12.837,15.469,22.651,18.053,20.929,5.509,25.479,4.42,20.961,1.154Zm.8,17.663s-30.029-15.469-34.855-4.875c-5.037,11.017,15.648,12.593,25.771,13.178,21.611,1.251,25.853-.731,20.783-3.039Zm3.64,19.808s-25.755-12.382-29.59-3.25c-4,9.425,13.519,10.286,22.1,10.546,18.313.552,21.855-1.2,17.517-3.039Zm1.235,16.005s-24.374-15.047-29.07-6.5c-4.972,8.953,12.366,11.667,20.864,12.837,18.134,2.5,21.855,1.121,17.728-1.17Zm-2.324-80.271s-4.582-39.616-19.5-35.553c-15.567,4.225-2.535,24.26,4.046,33.928,14.039,20.62,19.207,22.9,18.1,16.46Z" transform="translate(82.788 -150.89)" fill="#fa7869"/>
      <path id="Path_853" data-name="Path 853" d="M291.13,238.486c-3.055,4.664-4.355.163.211-20.994,2.129-9.928,6.857-30.11,16.98-23.448,9.75,6.4-10.188,33.685-10.188,33.685Zm14.527,6.012s27.624-19.353,20.572-28.55c-7.41-9.587-18.443,7.962-23.691,16.655-11.163,18.54-11.374,23.2-7,19.792Zm.569,22.424s23.984-10.789,19.873-18.849c-4.274-8.417-15.258,3.412-20.523,9.295-11.228,12.561-12.089,16.087-8.222,14.121Zm1.43,22.521s23.984-10.789,19.873-18.865c-4.274-8.4-15.258,3.429-20.523,9.311-11.228,12.561-12.089,16.087-8.222,14.121Zm-28.127-50.373s-26.356-21.124-33.2-11.716c-7.117,9.75,12.837,15.469,22.651,18.053,20.929,5.509,25.479,4.42,20.961,1.154Zm.8,17.663s-30.029-15.469-34.855-4.875c-5.037,11.017,15.648,12.593,25.771,13.178,21.611,1.251,25.853-.731,20.783-3.039Zm3.64,19.808s-25.755-12.382-29.59-3.25c-4,9.425,13.519,10.286,22.1,10.546,18.313.552,21.855-1.2,17.517-3.039Zm1.235,16.005s-24.374-15.047-29.07-6.5c-4.972,8.953,12.366,11.667,20.864,12.837,18.134,2.5,21.855,1.121,17.728-1.17Zm-2.324-80.271s-4.582-39.616-19.5-35.553c-15.567,4.225-2.535,24.26,4.046,33.928,14.039,20.62,19.207,22.9,18.1,16.46Z" transform="translate(82.788 -150.89)" fill="#fff" opacity="0.4"/>
      <path id="Path_854" data-name="Path 854" d="M258.06,185.51S280.809,228.2,284.4,248c4.079,22.749,4.745,48.179,1.95,68.1" transform="translate(91.142 -145.215)" fill="none" stroke="#fa7869" stroke-linecap="round" stroke-linejoin="round" stroke-width="1.252"/>
      <line id="Line_70" data-name="Line 70" y1="34.172" x2="11.131" transform="translate(371.935 55.439)" fill="none" stroke="#fa7869" stroke-linecap="round" stroke-linejoin="round" stroke-width="1.252"/>
      <line id="Line_71" data-name="Line 71" y1="26.421" x2="20.978" transform="translate(375.542 76.368)" fill="none" stroke="#fa7869" stroke-linecap="round" stroke-linejoin="round" stroke-width="1.252"/>
      <line id="Line_72" data-name="Line 72" x1="30.419" y1="12.756" transform="translate(343.775 85.24)" fill="none" stroke="#fa7869" stroke-linecap="round" stroke-linejoin="round" stroke-width="1.252"/>
      <line id="Line_73" data-name="Line 73" y1="17.533" x2="22.863" transform="translate(378.175 103.147)" fill="none" stroke="#fa7869" stroke-linecap="round" stroke-linejoin="round" stroke-width="1.252"/>
      <line id="Line_74" data-name="Line 74" x1="23.903" y1="4.956" transform="translate(353.069 108.2)" fill="none" stroke="#fa7869" stroke-linecap="round" stroke-linejoin="round" stroke-width="1.252"/>
      <line id="Line_75" data-name="Line 75" x1="18.508" y1="2.925" transform="translate(359.618 128.528)" fill="none" stroke="#fa7869" stroke-linecap="round" stroke-linejoin="round" stroke-width="1.252"/>
      <line id="Line_76" data-name="Line 76" y1="11.163" x2="12.431" transform="translate(379.686 132.135)" fill="none" stroke="#fa7869" stroke-linecap="round" stroke-linejoin="round" stroke-width="1.252"/>
      <line id="Line_77" data-name="Line 77" x1="21.254" y1="5.33" transform="translate(358.188 142.974)" fill="none" stroke="#fa7869" stroke-linecap="round" stroke-linejoin="round" stroke-width="1.252"/>
      <path id="Path_855" data-name="Path 855" d="M98.036,403.429c2.129,3.965-1.625,3.152-14.852-8.255-6.223-5.346-18.735-16.493-10.107-21.124,8.3-4.436,20.019,20.23,20.019,20.23Zm9.863-7.995s-3.055-27.152-12.349-25.641c-9.75,1.625-1.446,16.249,2.7,23.253,8.856,15.1,12.089,17.062,11.374,12.609Zm16.152,8.238s1.625-21.205-5.736-21.4c-7.6-.195-3.445,12.171-1.3,18.183,4.582,12.821,6.776,14.787,6.857,11.277Zm16.558,7.67s1.625-21.124-5.736-21.4c-7.621-.2-3.445,12.171-1.3,18.183,4.582,12.821,6.76,14.787,6.857,11.277Zm-46.587.585S68.836,422.49,72.9,430.988c4.209,8.84,15.94-3.169,21.563-9.132,11.992-12.739,13-16.4,8.9-14.446Zm12.853,6.24s-22.586,15.372-16.85,22.879c5.9,7.832,15-6.256,19.32-13.227,9.23-14.868,9.457-18.638,5.866-15.924Zm15.469,5.07s-18.735,13.552-13.779,19.727c5.167,6.5,12.528-5.638,16.022-11.634,7.458-12.788,7.572-15.989,4.6-13.6Zm11.846,5.281s-20.068,11.374-15.794,18.167c4.436,7,13-4.274,17.175-9.863,8.775-11.927,9.213-15.1,6.012-13ZM76.262,399.269s-29.915-12.041-32.791.146c-3.006,12.691,16.249,11.163,25.674,10.221,20.068-2.031,23.675-4.875,18.67-6.5Z" transform="translate(-43.156 -30.09)" fill="#fa7869"/>
      <path id="Path_856" data-name="Path 856" d="M98.036,403.429c2.129,3.965-1.625,3.152-14.852-8.255-6.223-5.346-18.735-16.493-10.107-21.124,8.3-4.436,20.019,20.23,20.019,20.23Zm9.863-7.995s-3.055-27.152-12.349-25.641c-9.75,1.625-1.446,16.249,2.7,23.253,8.856,15.1,12.089,17.062,11.374,12.609Zm16.152,8.238s1.625-21.205-5.736-21.4c-7.6-.195-3.445,12.171-1.3,18.183,4.582,12.821,6.776,14.787,6.857,11.277Zm16.558,7.67s1.625-21.124-5.736-21.4c-7.621-.2-3.445,12.171-1.3,18.183,4.582,12.821,6.76,14.787,6.857,11.277Zm-46.587.585S68.836,422.49,72.9,430.988c4.209,8.84,15.94-3.169,21.563-9.132,11.992-12.739,13-16.4,8.9-14.446Zm12.853,6.24s-22.586,15.372-16.85,22.879c5.9,7.832,15-6.256,19.32-13.227,9.23-14.868,9.457-18.638,5.866-15.924Zm15.469,5.07s-18.735,13.552-13.779,19.727c5.167,6.5,12.528-5.638,16.022-11.634,7.458-12.788,7.572-15.989,4.6-13.6Zm11.846,5.281s-20.068,11.374-15.794,18.167c4.436,7,13-4.274,17.175-9.863,8.775-11.927,9.213-15.1,6.012-13ZM76.262,399.269s-29.915-12.041-32.791.146c-3.006,12.691,16.249,11.163,25.674,10.221,20.068-2.031,23.675-4.875,18.67-6.5Z" transform="translate(-43.156 -30.09)" fill="#fff" opacity="0.4"/>
      <path id="Path_857" data-name="Path 857" d="M50.37,390.05s39.128.26,54.565,5.395a184.948,184.948,0,0,1,49.138,24.878" transform="translate(-38.648 -17.394)" fill="none" stroke="#fa7869" stroke-linecap="round" stroke-linejoin="round" stroke-width="1.252"/>
      <line id="Line_78" data-name="Line 78" x1="19.987" y1="21.091" transform="translate(35.543 354.425)" fill="none" stroke="#fa7869" stroke-linecap="round" stroke-linejoin="round" stroke-width="1.252"/>
      <line id="Line_79" data-name="Line 79" x1="10.676" y1="25.105" transform="translate(55.611 352.946)" fill="none" stroke="#fa7869" stroke-linecap="round" stroke-linejoin="round" stroke-width="1.252"/>
      <line id="Line_80" data-name="Line 80" x1="20.799" y2="16.704" transform="translate(41.572 377.141)" fill="none" stroke="#fa7869" stroke-linecap="round" stroke-linejoin="round" stroke-width="1.252"/>
      <line id="Line_81" data-name="Line 81" x1="3.64" y1="23.009" transform="translate(76.378 360.063)" fill="none" stroke="#fa7869" stroke-linecap="round" stroke-linejoin="round" stroke-width="1.252"/>
      <line id="Line_82" data-name="Line 82" x1="12.756" y2="15.063" transform="translate(61.461 381.025)" fill="none" stroke="#fa7869" stroke-linecap="round" stroke-linejoin="round" stroke-width="1.252"/>
      <line id="Line_83" data-name="Line 83" x1="9.213" y2="12.024" transform="translate(78.441 387.264)" fill="none" stroke="#fa7869" stroke-linecap="round" stroke-linejoin="round" stroke-width="1.252"/>
      <line id="Line_84" data-name="Line 84" x1="3.136" y1="13.146" transform="translate(93.537 377.58)" fill="none" stroke="#fa7869" stroke-linecap="round" stroke-linejoin="round" stroke-width="1.252"/>
      <line id="Line_85" data-name="Line 85" x1="11.992" y2="13.048" transform="translate(88.142 392.838)" fill="none" stroke="#fa7869" stroke-linecap="round" stroke-linejoin="round" stroke-width="1.252"/>
    </g>
    <g id="freepik--device-2--inject-2" transform="translate(140.485 330.538)">
      <rect id="Rectangle_378" data-name="Rectangle 378" width="494.155" height="321.686" rx="8.55" fill="gray" stroke="#263238" stroke-linecap="round" stroke-linejoin="round" stroke-width="1"/>
      <rect id="Rectangle_379" data-name="Rectangle 379" width="451.436" height="249.702" transform="translate(0 35.992)" fill="gray" stroke="#263238" stroke-linecap="round" stroke-linejoin="round" stroke-width="1"/>
      <rect id="Rectangle_380" data-name="Rectangle 380" width="359.758" height="249.702" transform="translate(91.678 35.992)" fill="#263238" stroke="#263238" stroke-linecap="round" stroke-linejoin="round" stroke-width="1"/>
      <circle id="Ellipse_120" data-name="Ellipse 120" cx="24.634" cy="24.634" r="24.634" transform="translate(21.546 136.217)" fill="gray" stroke="#263238" stroke-linecap="round" stroke-linejoin="round" stroke-width="1"/>
      <circle id="Ellipse_121" data-name="Ellipse 121" cx="13.292" cy="13.292" r="13.292" transform="translate(32.888 147.559)" fill="#263238" stroke="#263238" stroke-linecap="round" stroke-linejoin="round" stroke-width="1"/>
      <rect id="Rectangle_381" data-name="Rectangle 381" width="22.993" height="14.787" transform="translate(34.188 48.829)" fill="gray" stroke="#263238" stroke-linecap="round" stroke-linejoin="round" stroke-width="1"/>
      <rect id="Rectangle_382" data-name="Rectangle 382" width="22.993" height="14.787" transform="translate(34.188 71.009)" fill="gray" stroke="#263238" stroke-linecap="round" stroke-linejoin="round" stroke-width="1"/>
      <rect id="Rectangle_383" data-name="Rectangle 383" width="22.993" height="14.787" transform="translate(34.188 93.173)" fill="gray" stroke="#263238" stroke-linecap="round" stroke-linejoin="round" stroke-width="1"/>
      <rect id="Rectangle_384" data-name="Rectangle 384" width="22.993" height="14.787" transform="translate(34.188 115.353)" fill="gray" stroke="#263238" stroke-linecap="round" stroke-linejoin="round" stroke-width="1"/>
      <rect id="Rectangle_385" data-name="Rectangle 385" width="22.993" height="14.787" transform="translate(34.188 193.561)" fill="gray" stroke="#263238" stroke-linecap="round" stroke-linejoin="round" stroke-width="1"/>
      <rect id="Rectangle_386" data-name="Rectangle 386" width="22.993" height="14.787" transform="translate(34.188 215.725)" fill="gray" stroke="#263238" stroke-linecap="round" stroke-linejoin="round" stroke-width="1"/>
      <rect id="Rectangle_387" data-name="Rectangle 387" width="22.993" height="14.787" transform="translate(34.188 237.905)" fill="gray" stroke="#263238" stroke-linecap="round" stroke-linejoin="round" stroke-width="1"/>
      <rect id="Rectangle_388" data-name="Rectangle 388" width="22.993" height="14.787" transform="translate(34.188 260.085)" fill="gray" stroke="#263238" stroke-linecap="round" stroke-linejoin="round" stroke-width="1"/>
    </g>
    <g id="freepik--device-1--inject-2" transform="translate(327.615 451.53)">
      <rect id="Rectangle_389" data-name="Rectangle 389" width="2.73" height="9.132" rx="0.34" transform="translate(8.035 183.304) rotate(61.63)" fill="#263238" stroke="#263238" stroke-linecap="round" stroke-linejoin="round" stroke-width="1"/>
      <path id="Path_858" data-name="Path 858" d="M422.018,329l1.4-.715c8.921-4.875,14.494-11.846,12.414-15.681s-10.984-3.022-19.922,1.787l-1.349.78Z" transform="translate(-90.814 -310.18)" fill="#263238" stroke="#263238" stroke-linecap="round" stroke-linejoin="round" stroke-width="1"/>
      <path id="Path_859" data-name="Path 859" d="M270.741,488.983c6.971-4.517,21.644-15.437,38.592-24.975S446.1,389,446.1,389L548.83,329.415s1.365-1.024-1.95-8.125h.114c-.39-.731-.78-1.43-1.154-2.064s-.682-1.349-1.089-2.1h-.114c-4.176-6.711-5.785-6.126-5.785-6.126L432.681,364.221s-120.423,64.266-137.7,73.219-34.465,15.226-42.053,18.589a26.455,26.455,0,0,0-4.355,2.356l-30.467,35.18L219,495.19l.357.682.894,1.625,46.132-6.175a34.5,34.5,0,0,0,4.355-2.34Z" transform="translate(-213.58 -309.673)" fill="gray" stroke="#263238" stroke-linecap="round" stroke-linejoin="round" stroke-width="1"/>
      <path id="Path_860" data-name="Path 860" d="M242.354,406.09,218.11,434.1l.894,1.641.357.682.894,1.641,37.406-5Z" transform="translate(-213.58 -250.244)" fill="#263238" stroke="#263238" stroke-linecap="round" stroke-linejoin="round" stroke-width="1"/>
      <rect id="Rectangle_390" data-name="Rectangle 390" width="12.626" height="92.377" rx="1.56" transform="translate(148.42 101.825) rotate(61.63)" fill="#fff" stroke="#263238" stroke-linecap="round" stroke-linejoin="round" stroke-width="1"/>
      <rect id="Rectangle_391" data-name="Rectangle 391" width="9.587" height="61.503" rx="1.18" transform="translate(124.08 116.822) rotate(61.63)" fill="#263238" stroke="#263238" stroke-linecap="round" stroke-linejoin="round" stroke-width="1"/>
      <line id="Line_86" data-name="Line 86" x2="3.997" y2="7.41" transform="translate(88.555 136.363)" fill="none" stroke="#fff" stroke-linecap="round" stroke-linejoin="round" stroke-width="1"/>
      <path id="Path_861" data-name="Path 861" d="M351.779,399.547,371.018,389l102.728-59.586s1.365-1.024-1.95-8.125h.114c-.39-.731-.78-1.43-1.154-2.064s-.682-1.349-1.089-2.1h-.114c-4.176-6.711-5.785-6.126-5.785-6.126L357.6,364.221,338.26,374.539Z" transform="translate(-138.495 -309.673)" fill="gray" stroke="#263238" stroke-linecap="round" stroke-linejoin="round" stroke-width="1"/>
      <path id="Path_862" data-name="Path 862" d="M235.706,430.454l-8.888-16.444-1.657,1.917,8.027,14.868Z" transform="translate(-209.174 -245.294)" fill="#fff" stroke="#263238" stroke-linecap="round" stroke-linejoin="round" stroke-width="1"/>
      <path id="Path_863" data-name="Path 863" d="M234.85,404.98l-2.21,2.551,14.283,26.454,3.347-.455Z" transform="translate(-204.5 -250.937)" fill="#fff" stroke="#263238" stroke-linecap="round" stroke-linejoin="round" stroke-width="1"/>
    </g>
    <g id="freepik--character-3--inject-2" transform="translate(304.765 95.365)">
      <rect id="Rectangle_392" data-name="Rectangle 392" width="190.392" height="126.013" transform="translate(0.016 3.605)" fill="#263238"/>
      <rect id="Rectangle_393" data-name="Rectangle 393" width="125.883" height="24.228" transform="translate(64.526 8.87)" fill="#fff" opacity="0.1"/>
      <path id="Path_864" data-name="Path 864" d="M265.786,120.678V96.45H201.26V217.2H391.668v-96.52Z" transform="translate(-201.26 -87.58)" fill="#fff" opacity="0.2"/>
      <rect id="Rectangle_394" data-name="Rectangle 394" width="22.213" height="19.922" transform="translate(107.115 75.07)" fill="#263238"/>
      <rect id="Rectangle_395" data-name="Rectangle 395" width="22.213" height="19.922" transform="translate(35.033 75.07)" fill="#263238"/>
      <rect id="Rectangle_396" data-name="Rectangle 396" width="22.213" height="19.922" transform="translate(35.033 75.07)" fill="#fff" opacity="0.75"/>
      <rect id="Rectangle_397" data-name="Rectangle 397" width="22.213" height="19.922" transform="translate(11.017 75.07)" fill="#fff" opacity="0.75"/>
      <rect id="Rectangle_398" data-name="Rectangle 398" width="22.213" height="19.922" transform="translate(83.082 75.07)" fill="#263238"/>
      <rect id="Rectangle_399" data-name="Rectangle 399" width="22.213" height="19.922" transform="translate(83.082 75.07)" fill="#fff" opacity="0.15"/>
      <rect id="Rectangle_400" data-name="Rectangle 400" width="22.213" height="19.922" transform="translate(59.066 75.07)" fill="#263238"/>
      <rect id="Rectangle_401" data-name="Rectangle 401" width="22.213" height="19.922" transform="translate(59.066 75.07)" fill="#fff" opacity="0.25"/>
      <rect id="Rectangle_402" data-name="Rectangle 402" width="22.066" height="21.124" transform="translate(131.489 96.372)" fill="#fa7869"/>
      <g id="Group_56" data-name="Group 56" transform="translate(131.489 96.372)" clip-path="url(#clip-path)">
        <rect id="Rectangle_403" data-name="Rectangle 403" width="22.066" height="21.124" opacity="0.5"/>
      </g>
      <rect id="Rectangle_405" data-name="Rectangle 405" width="22.066" height="21.124" transform="translate(107.391 96.372)" fill="#fa7869"/>
      <rect id="Rectangle_406" data-name="Rectangle 406" width="22.066" height="21.124" transform="translate(107.391 96.372)" opacity="0.2"/>
      <rect id="Rectangle_407" data-name="Rectangle 407" width="22.066" height="21.124" transform="translate(83.294 96.372)" fill="#fa7869"/>
      <rect id="Rectangle_408" data-name="Rectangle 408" width="22.066" height="21.124" transform="translate(59.212 96.372)" fill="#fa7869"/>
      <rect id="Rectangle_409" data-name="Rectangle 409" width="22.066" height="21.124" transform="translate(59.212 96.372)" fill="#fff" opacity="0.3"/>
      <rect id="Rectangle_410" data-name="Rectangle 410" width="22.066" height="21.124" transform="translate(35.131 96.372)" fill="#fa7869"/>
      <rect id="Rectangle_411" data-name="Rectangle 411" width="22.066" height="21.124" transform="translate(35.131 96.372)" fill="#fff" opacity="0.6"/>
      <rect id="Rectangle_412" data-name="Rectangle 412" width="22.066" height="21.124" transform="translate(11.033 96.372)" fill="#fff"/>
      <rect id="Rectangle_413" data-name="Rectangle 413" width="22.066" height="21.124" transform="translate(155.456 96.372)" fill="#fa7869"/>
      <rect id="Rectangle_414" data-name="Rectangle 414" width="22.066" height="21.124" transform="translate(155.456 96.372)" opacity="0.8"/>
      <rect id="Rectangle_415" data-name="Rectangle 415" width="14.901" height="14.267" transform="translate(18.02 44.96)" fill="none" stroke="#263238" stroke-linecap="round" stroke-linejoin="round" stroke-width="2"/>
      <rect id="Rectangle_416" data-name="Rectangle 416" width="14.901" height="14.267" transform="translate(11.082 36.916)" fill="#fa7869"/>
      <rect id="Rectangle_417" data-name="Rectangle 417" width="14.901" height="14.267" transform="translate(11.082 36.916)" fill="#fff" opacity="0.3"/>
      <line id="Line_87" data-name="Line 87" x2="38.462" transform="translate(13.422 21.512)" fill="none" stroke="#fff" stroke-linecap="round" stroke-linejoin="round" stroke-width="2"/>
      <path id="Path_865" data-name="Path 865" d="M297.2,100.02v1.267l2.632,2.226L297.2,105.74v1.284l4.144-3.51Z" transform="translate(-141.305 -85.349)" fill="#fff"/>
      <path id="Path_866" data-name="Path 866" d="M300,100.02v1.267l2.632,2.226L300,105.74v1.284l4.16-3.51Z" transform="translate(-139.555 -85.349)" fill="#fff"/>
      <line id="Line_88" data-name="Line 88" y2="12.106" transform="translate(169.869 12.559)" fill="none" stroke="#fff" stroke-linecap="round" stroke-linejoin="round" stroke-width="0.5"/>
      <line id="Line_89" data-name="Line 89" x2="9.473" transform="translate(175.134 16.247)" fill="none" stroke="#fff" stroke-linecap="round" stroke-linejoin="round" stroke-width="0.5"/>
      <line id="Line_90" data-name="Line 90" x2="9.473" transform="translate(175.134 18.344)" fill="none" stroke="#fff" stroke-linecap="round" stroke-linejoin="round" stroke-width="0.5"/>
      <line id="Line_91" data-name="Line 91" x2="9.473" transform="translate(175.134 20.456)" fill="none" stroke="#fff" stroke-linecap="round" stroke-linejoin="round" stroke-width="0.5"/>
      <line id="Line_92" data-name="Line 92" x2="9.473" transform="translate(175.134 22.568)" fill="none" stroke="#fff" stroke-linecap="round" stroke-linejoin="round" stroke-width="0.5"/>
      <path id="Path_867" data-name="Path 867" d="M382.53,105.76s-6.646-7.263-9.067-7.263-40.623,5.443-42.378,4.534-2.112-7.263-4.875-8.466a15.99,15.99,0,0,0-5.752-1.219s-.569-2.34-2.7-2.34a5.85,5.85,0,0,0-3.022.6,2.941,2.941,0,0,0,0,2.421c.6,1.219-.309,4.55-.309,4.55a21.123,21.123,0,0,0-6.045-1.219,2,2,0,0,0-1.82,3.25c.91.6,5.151-1.2,6.353.91s2.421,5.151,5.46,6.061a106.122,106.122,0,0,0,13.308,1.511l35.992,3.932,5.443,7.263,12.707-5.752Z" transform="translate(-135.737 -90.991)" fill="#d9d9d9" stroke="#263238" stroke-linecap="round" stroke-linejoin="round" stroke-width="1"/>
      <path id="Path_868" data-name="Path 868" d="M378.7,153.72l-4.875,6.353S323.454,173.5,322.236,173.5s-8.937-6.5-11.049-5.85-5.752,3.932-9.392,4.534-3.022,2.421-.894,3.039S306.637,174,307.546,174a29.607,29.607,0,0,1,3.64.6s-6.061,7.28-6.971,7.572-3.022,3.64-1.511,3.64,1.82-.309,4.875-.309a24.116,24.116,0,0,0,6.061-.91,55.844,55.844,0,0,0,5.443-2.112c1.82-.91,55.085-5.46,56.872-5.46a10.025,10.025,0,0,0,6.662-3.25c1.8-2.129,12.707-17.874,12.707-17.874Z" transform="translate(-140.066 -51.79)" fill="#d9d9d9" stroke="#263238" stroke-linecap="round" stroke-linejoin="round" stroke-width="1"/>
      <path id="Path_869" data-name="Path 869" d="M389.52,227.481a113.155,113.155,0,0,1-10.887,9.993c-5.151,3.932-10.594,6.662-6.971,8.775s16.655-2.73,20.88-6.353,2.129-14.836,2.129-14.836Z" transform="translate(-95.507 -7.209)" fill="#fff" stroke="#263238" stroke-linecap="round" stroke-linejoin="round" stroke-width="1"/>
      <path id="Path_870" data-name="Path 870" d="M401.818,178.1s4.875,0,4.875,3.64-4.241,6.955-3.932,10.286.91,7.572-1.82,10.594-8.775,9.376-8.466,4.241,3.022-11.212,2.714-14.836a15.859,15.859,0,0,0-2.714-6.971l4.225-7.865Z" transform="translate(-81.773 -37.124)" fill="#fff" stroke="#263238" stroke-linecap="round" stroke-linejoin="round" stroke-width="1"/>
      <path id="Path_871" data-name="Path 871" d="M445.164,141.657c-4.241-7.556-13.926-12.707-13.926-12.707s-3.331,13.617-10.286,17.874a66.865,66.865,0,0,1-14.234,6.353S396.742,156.2,383.97,167.7,353.1,203.453,355.826,206.15s9.75,2.112,21.124,3.022a184.671,184.671,0,0,0,22.1.91s-1.219,20.279-1.219,27.542-1.2,52-1.2,52,3.624,3.022,9.376-.309c0,0,13.324-45.709,13.324-53.622V220.563s20.88-39.648,25.723-49.641S449.405,149.229,445.164,141.657ZM403.4,199.472l-16.054-5.752,25.43-15.437Z" transform="translate(-104.841 -67.27)" fill="#263238" stroke="#263238" stroke-linecap="round" stroke-linejoin="round" stroke-width="1"/>
      <path id="Path_872" data-name="Path 872" d="M369.987,153.759,346.6,191.23l24.26,2.34L388.122,172.1s15.859-1.852,20.051-1.4,3.526,2.909,4.664,3.737c2.129,1.625,3.737,2.324,14.462.926s14.917-15.388,13.519-23.318-8.856-12.122-16.785-17.728-26.584-14.446-33.587-16.249-20.994-3.737-20.994-3.737l-5.119-13.991s-13.991-3.737-19.6,2.324l-.926,3.25,20.052,39.193Z" transform="translate(-112.177 -85.856)" fill="#fa7869" stroke="#263238" stroke-linecap="round" stroke-linejoin="round" stroke-width="1"/>
      <path id="Path_873" data-name="Path 873" d="M370.774,129.522s2-13.991-6.321-22.976-26.974-2-31.3,5.671.341,17.63,2,19.3,2,3.25,0,6.646-2.665,3.672-.666,4.664a17.452,17.452,0,0,0,3.25,1.332s6,7.328,7.653,9.993a5.07,5.07,0,0,0,6.987,1.625c2-1.332,11.374-9.652,11.374-9.652l13.974,5.655a34.12,34.12,0,0,0,0-10.984C376.77,135.177,375.1,129.522,370.774,129.522Z" transform="translate(-119.951 -83.913)" fill="#d9d9d9"/>
      <g id="Group_57" data-name="Group 57" transform="translate(211.418 18.405)" clip-path="url(#clip-path-2)">
        <path id="Path_874" data-name="Path 874" d="M370.794,129.668a3.918,3.918,0,0,0-1.089-.146s2-13.991-6.321-22.976c-7.8-8.417-24.634-2.811-30.3,4.209,1.154-1.186,3.412-2.4,7.328-.536,6.321,2.99,4.664,5.655,5.33,9.977s7.653,1.332,7.995,3.672-.666,5.655,1.625,4.988,5.33-3.656,7.328-.341a5.606,5.606,0,0,0,8.108,1.154Z" transform="translate(-330.301 -102.318)" fill="#b2b2b2"/>
      </g>
      <path id="Path_876" data-name="Path 876" d="M370.774,129.522s2-13.991-6.321-22.976-26.974-2-31.3,5.671.341,17.63,2,19.3,2,3.25,0,6.646-2.665,3.672-.666,4.664a17.452,17.452,0,0,0,3.25,1.332s6,7.328,7.653,9.993a5.07,5.07,0,0,0,6.987,1.625c2-1.332,11.374-9.652,11.374-9.652l13.974,5.655a34.12,34.12,0,0,0,0-10.984C376.77,135.177,375.1,129.522,370.774,129.522Z" transform="translate(-119.951 -83.913)" fill="none" stroke="#263238" stroke-linecap="round" stroke-linejoin="round" stroke-width="1"/>
      <path id="Path_877" data-name="Path 877" d="M338.82,130.371A5.427,5.427,0,0,0,344.475,126" transform="translate(-115.296 -69.113)" fill="none" stroke="#263238" stroke-linecap="round" stroke-linejoin="round" stroke-width="1"/>
      <path id="Path_878" data-name="Path 878" d="M348.83,121.524s2.372-8.953,5.037-4.875,3.672,8.661.666,10.659-4.322,1.332-4.322,1.332" transform="translate(-109.04 -75.622)" fill="#d9d9d9" stroke="#263238" stroke-linecap="round" stroke-linejoin="round" stroke-width="1"/>
      <path id="Path_879" data-name="Path 879" d="M338.944,121.153c.325,1.284.114,2.421-.471,2.567s-1.3-.764-1.625-2.047-.1-2.421.471-2.567S338.635,119.886,338.944,121.153Z" transform="translate(-116.622 -73.431)" fill="#263238"/>
      <path id="Path_880" data-name="Path 880" d="M335.17,118.9s0-2.324,3.542-1.316" transform="translate(-117.577 -74.529)" fill="none" stroke="#263238" stroke-linecap="round" stroke-linejoin="round" stroke-width="1"/>
      <path id="Path_881" data-name="Path 881" d="M355.62,119.76a18.655,18.655,0,0,1,3.25,10.334c0,6.061-.471,12.122,1.4,13.519l1.852,1.4s5.606-2.795,3.737-13.991S357.554,115.015,355.62,119.76Z" transform="translate(-104.797 -74.15)" fill="#fff" stroke="#263238" stroke-linecap="round" stroke-linejoin="round" stroke-width="1"/>
      <path id="Path_882" data-name="Path 882" d="M392.863,164.666s-3.022-10.595-5.444-13.926" transform="translate(-84.924 -53.653)" fill="none" stroke="#263238" stroke-linecap="round" stroke-linejoin="round" stroke-width="1"/>
      <path id="Path_883" data-name="Path 883" d="M382.39,182.944a31.3,31.3,0,0,1,4.241-10.594" transform="translate(-88.068 -40.148)" fill="none" stroke="#263238" stroke-linecap="round" stroke-linejoin="round" stroke-width="1"/>
      <line id="Line_93" data-name="Line 93" y1="11.261" x2="8.986" transform="translate(275.944 74.988)" fill="none" stroke="#263238" stroke-linecap="round" stroke-linejoin="round" stroke-width="1"/>
      <line id="Line_94" data-name="Line 94" y1="10.302" x2="18.768" transform="translate(277.374 74.387)" fill="none" stroke="#263238" stroke-linecap="round" stroke-linejoin="round" stroke-width="1"/>
    </g>
    <g id="freepik--character-2--inject-2" transform="translate(406.202 243.982)">
      <path id="Path_884" data-name="Path 884" d="M330.129,343.782l11.456,19.759s-5.362,6.093-9.993,8.043S328.179,375,329.4,375s3.169,1.706,8.043-.244,7.8-3.9,9.993-3.656,6.093,0,6.093-3.169-.244-3.656-5.118-11.943-12.918-31.215-12.918-31.215Z" transform="translate(-223.316 -93.515)" fill="#fff" stroke="#263238" stroke-linecap="round" stroke-linejoin="round" stroke-width="1"/>
      <path id="Path_885" data-name="Path 885" d="M345.708,350.6a6.126,6.126,0,0,1-4.144-.731s-5.362,6.094-9.993,8.043-3.412,3.412-2.194,3.412,3.169,1.706,8.043-.244,7.8-3.9,9.993-3.656,6.093,0,6.093-3.169c0-2.486-.146-3.347-2.584-7.6C349.576,348.064,347.219,350.273,345.708,350.6Z" transform="translate(-223.328 -79.841)" fill="#fa7869" stroke="#263238" stroke-linecap="round" stroke-linejoin="round" stroke-width="1"/>
      <path id="Path_886" data-name="Path 886" d="M334.782,324.77l-5.362,19.012,5.411,9.343c2.129-.228,5.167-1.332,9.246-4.517C339.625,338.566,334.782,324.77,334.782,324.77Z" transform="translate(-222.607 -93.515)" fill="gray" stroke="#263238" stroke-linecap="round" stroke-linejoin="round" stroke-width="1"/>
      <path id="Path_887" data-name="Path 887" d="M474.868,297.374c-3.25-3.656-14.884-4.387-14.884-4.387s-18.28-28.534-22.424-33.165S423.65,247.391,417.8,239.835s-10.725-15.616-16.574-16.59-18.3,2.194-20.49,2.194-2.925-10.968-2.925-10.968l-11.456,5.85s1.706,7.068,0,8.531-15.859,1.706-19.759,5.622-15.356,19.255-19.5,23.4-16.347,11.7-20.247,15.859-19.255,18.28-22.911,20.23-7.816-1.95-11.228-2.194-9.262-1.219-9.018.244,4.631,2.437,5.85,3.169,3.9,2.925,3.9,2.925-6.337-.244-7.312.244.975,2.437,2.681,2.437,2.925-.731,6.093.731,9.75-.487,11.716-1.95,40.721-23.886,43.4-26.324,19.255-14.624,19.255-14.624,4.631,11.959,6.093,16.59,1.479,20.23.244,27.055a89.176,89.176,0,0,0-.487,17.322s-13.649,30-15.356,39.989,2.437,14.381,2.925,16.087,15.372,22.749,15.372,22.749l1.462,2.925s-1.219,24.374-3.412,35.6a97.1,97.1,0,0,1-4.16,14.381,77.031,77.031,0,0,1-8.287,14.884c-1.95,2.194-3.9,3.9-1.462,3.9s11.7-2.925,15.128-5.606a99.539,99.539,0,0,0,8.775-8.791c1.462-1.462,1.219-3.169-.244-5.362s-1.706-6.825-1.706-8.043,10.481-36.577,13.406-47.545,1.462-23.659,1.462-24.374,28.046-32.677,28.534-44.62-4.631-23.9-8.531-30.971-10.01-15.843-10.01-16.574,0-.244,1.219-5.85,7.572-29.752,7.572-29.752l9.993,6.093L438.063,276.9l19.5,18.28a20.5,20.5,0,0,0,2.681,4.875,31.668,31.668,0,0,0,8.043,4.144c.731,0,2.681-.244,1.462-1.219a38.986,38.986,0,0,0-4.631-2.681s4.875-.244,6.581,1.219a19.759,19.759,0,0,0,6.6,3.169C479.011,304.7,478.036,301.03,474.868,297.374Z" transform="translate(-263.686 -162.444)" fill="#fff" stroke="#263238" stroke-linecap="round" stroke-linejoin="round" stroke-width="1"/>
      <path id="Path_888" data-name="Path 888" d="M326.8,267.68c-.081.7-.179,1.381-.292,1.966a89.176,89.176,0,0,0-.487,17.322s-13.649,30-15.356,39.989,2.437,14.381,2.925,16.087,15.372,22.749,15.372,22.749l1.462,2.925s-.666,13.211-1.9,24.666a15.989,15.989,0,0,0,10.887.52c3.25-11.277,7.377-25.5,9.051-31.767,2.925-10.984,1.462-23.659,1.462-24.374s28.046-32.677,28.534-44.62c.39-9.75-2.909-19.418-6.256-26.5C363.071,268.85,342.695,272.652,326.8,267.68Z" transform="translate(-234.581 -129.841)" fill="gray" stroke="#263238" stroke-linecap="round" stroke-linejoin="round" stroke-width="1"/>
      <path id="Path_889" data-name="Path 889" d="M322.67,359.335s1.219-30.24,1.706-35.115,20.718-42.67,20.718-42.67" transform="translate(-226.825 -120.524)" fill="none" stroke="#263238" stroke-linecap="round" stroke-linejoin="round" stroke-width="1"/>
      <line id="Line_95" data-name="Line 95" x1="8.043" y1="8.775" transform="translate(105.351 161.026)" fill="none" stroke="#263238" stroke-linecap="round" stroke-linejoin="round" stroke-width="1"/>
      <path id="Path_890" data-name="Path 890" d="M425.589,256.518c-4.144-4.631-13.909-12.431-19.759-19.987s-10.725-15.615-16.574-16.59c-3.965-.65-10.9.569-15.68,1.446-1.625,5.378-5.573,15.957-13.341,17.582-8.693,1.82-10.351-8.6-10.659-12.219-4.988.812-12.3,1.771-14.949,4.42-3.9,3.9-15.356,19.255-19.5,23.4s-16.347,11.7-20.247,15.859c-2.015,2.145-7.1,6.955-12.041,11.374a16.768,16.768,0,0,0,5.249,6.4c12.122-7.182,28.257-16.72,29.964-18.264,2.681-2.437,19.255-14.624,19.255-14.624s4.631,11.959,6.093,16.59,1.479,20.23.244,27.055a53.627,53.627,0,0,0-.65,7.458c20.019,6.678,41.809-1.625,48.829-4.664a82.226,82.226,0,0,0-4.761-10.351c-3.9-7.068-10.01-15.843-10.01-16.574s0-.244,1.219-5.85,7.572-29.752,7.572-29.752l9.993,6.093L426.093,273.6l2.34,2.194,7.085-5.265C431.309,264.252,427.279,258.4,425.589,256.518Z" transform="translate(-251.715 -159.14)" fill="#fa7869" stroke="#263238" stroke-linecap="round" stroke-linejoin="round" stroke-width="1"/>
      <path id="Path_891" data-name="Path 891" d="M316.456,246.817a42.833,42.833,0,0,1-.244-5.362,23.951,23.951,0,0,1,1.95-8.125" transform="translate(-230.864 -150.658)" fill="none" stroke="#263238" stroke-linecap="round" stroke-linejoin="round" stroke-width="1"/>
      <path id="Path_892" data-name="Path 892" d="M353.779,194.528a10.985,10.985,0,1,1-10.985-10.968,10.985,10.985,0,0,1,10.985,10.968Z" transform="translate(-221.113 -181.76)" fill="#263238"/>
      <path id="Path_893" data-name="Path 893" d="M334.8,187.908a.8.8,0,0,1-.455-.146.764.764,0,0,1-.13-1.04c.211-.276,5.33-6.711,16.168-3.25a.748.748,0,0,1,.488.926.764.764,0,0,1-.926.471c-9.847-3.25-14.364,2.437-14.624,2.681a.747.747,0,0,1-.52.358Z" transform="translate(-219.701 -182.452)" fill="#263238"/>
      <path id="Path_894" data-name="Path 894" d="M351.132,210.775s1.056-13-7.052-19.028-19.369-2.47-23.951,6-1.414,16.542,0,22.18,2.811,9.863,5.639,13.389,8.125,6.337,12.317,5.281,8.125-8.125,10.221-15.843c0,0,3.526.341,6-3.884S355.357,207.606,351.132,210.775Z" transform="translate(-229.905 -178.524)" fill="#fff" stroke="#263238" stroke-linecap="round" stroke-linejoin="round" stroke-width="1"/>
      <path id="Path_895" data-name="Path 895" d="M325.658,205.92a2.226,2.226,0,0,1,0,2.811c-1.089,1.722-2.389,3.25-1.3,3.884a7.964,7.964,0,0,0,2.584.861" transform="translate(-226.027 -167.787)" fill="none" stroke="#263238" stroke-linecap="round" stroke-linejoin="round" stroke-width="1.114"/>
      <path id="Path_896" data-name="Path 896" d="M324.63,214.075c.471.617,5.541,2.551,7.41-1.625" transform="translate(-225.6 -163.706)" fill="none" stroke="#263238" stroke-linecap="round" stroke-linejoin="round" stroke-width="1.114"/>
      <ellipse id="Ellipse_122" data-name="Ellipse 122" cx="1.105" cy="2.567" rx="1.105" ry="2.567" transform="translate(105.335 34.705)" fill="#263238"/>
      <path id="Path_897" data-name="Path 897" d="M324.036,206.693c0,1.414-.358,2.584-.975,2.616s-1.154-1.089-1.219-2.5.357-2.584.975-2.616S323.971,205.279,324.036,206.693Z" transform="translate(-227.346 -168.868)" fill="#263238"/>
      <path id="Path_898" data-name="Path 898" d="M327,202.467s4.144-2.454,6.581.731" transform="translate(-224.119 -170.509)" fill="none" stroke="#263238" stroke-linecap="round" stroke-linejoin="round" stroke-width="1"/>
      <path id="Path_899" data-name="Path 899" d="M325.582,203.631s-3.169-2.7-5.622,0" transform="translate(-228.518 -169.966)" fill="none" stroke="#263238" stroke-linecap="round" stroke-linejoin="round" stroke-width="1"/>
      <path id="Path_900" data-name="Path 900" d="M351.146,209.941c0-2.925-.195-13.1-7.085-18.2-8.125-6-19.369-2.47-23.951,6a19.5,19.5,0,0,0-2.34,8.125V207.6s-.1-9.587,7.962-11.374,14.316,1.121,16.087,5.248c1.966,4.6,2.437,6.5,3.526,8.921s2.389,5.915,3.607,4.452C349.488,214.247,350.447,210.981,351.146,209.941Z" transform="translate(-229.887 -178.518)" fill="#263238" stroke="#263238" stroke-linecap="round" stroke-linejoin="round" stroke-width="1"/>
      <path id="Path_901" data-name="Path 901" d="M336.35,365.981c1.462-1.462,1.219-3.169-.244-5.362a7.314,7.314,0,0,1-.845-1.9l-4.761,5.557a24.583,24.583,0,0,0-3.412-5.118c-2.454-2.925-3.916.244-3.916.244h-.13c-.292.715-.569,1.414-.845,2.145a77.038,77.038,0,0,1-8.287,14.884c-1.95,2.194-3.9,3.9-1.462,3.9s11.7-2.925,15.128-5.606a99.535,99.535,0,0,0,8.774-8.742Z" transform="translate(-233.924 -72.8)" fill="#fa7869" stroke="#263238" stroke-linecap="round" stroke-linejoin="round" stroke-width="1"/>
    </g>
    <g id="freepik--character-1--inject-2" transform="translate(159.718 168.936)">
      <path id="Path_902" data-name="Path 902" d="M141.869,205.85l-11.374,42.979s-12.284.487-14.624,1.2-4.095,6.5-3.851,7.7,1.625.731,2.892.244c0,0-3.136,1.446-.959,1.934s7.7-1.625,7.7-1.625,9.392,0,10.838-1.625a30.564,30.564,0,0,0,4.322-8.9c.487-2.161,17.874-36.967,17.874-36.967S145.72,210.968,141.869,205.85Z" transform="translate(-111.996 -92.784)" fill="#fff" stroke="#263238" stroke-linecap="round" stroke-linejoin="round" stroke-width="1"/>
      <path id="Path_903" data-name="Path 903" d="M113.79,239.411a37.939,37.939,0,0,1,8.9-3.851" transform="translate(-110.875 -74.218)" fill="#fff" stroke="#263238" stroke-linecap="round" stroke-linejoin="round" stroke-width="1"/>
      <path id="Path_904" data-name="Path 904" d="M173.25,211.006l12.512,26.242H194.2l-8.19-32.5Z" transform="translate(-73.717 -93.472)" fill="#fff" stroke="#263238" stroke-linecap="round" stroke-linejoin="round" stroke-width="1"/>
      <path id="Path_905" data-name="Path 905" d="M179.358,293.8s-1.934,14.624-.975,14.624,12.284,3.607,14.624,4.322,13.731,2.649,14.446,1.446-16.119-13.487-16.85-14.2a29.153,29.153,0,0,1-2.4-4.582Z" transform="translate(-70.676 -37.822)" fill="#fff" stroke="#263238" stroke-linecap="round" stroke-linejoin="round" stroke-width="1"/>
      <path id="Path_906" data-name="Path 906" d="M182.2,267.27s-8.125,8.125-6.646,9.75,15.843,21.465,19.5,19.5-4.6-22.505-4.6-22.505Z" transform="translate(-72.393 -54.401)" fill="#fff" stroke="#263238" stroke-linecap="round" stroke-linejoin="round" stroke-width="1"/>
      <path id="Path_907" data-name="Path 907" d="M240.5,232.135c-17.094-7.946-44.783-6.5-44.783-6.5l-5-9.636a74.909,74.909,0,0,1-16.135,4.095c-8.125.959-27.932-2.177-27.932-2.177S143,236.23,143,243.217s4.582,7.231,23.594,11.553,38.283,6.5,38.283,6.5-2.892,25.528-2.4,42.134-1.2,39-1.2,39l8.9,1.625,12.138-41.907s40.136-43.97,44.23-46.619S257.638,240.081,240.5,232.135Zm-13,41.176s1.446-13.958,1.446-16.363-2.892-5.3-2.892-5.3c1.917.715,12.284,3.607,12.284,3.607Z" transform="translate(-92.621 -86.441)" fill="#fa7869" stroke="#263238" stroke-linecap="round" stroke-linejoin="round" stroke-width="1"/>
      <path id="Path_908" data-name="Path 908" d="M209.763,244.258A65.549,65.549,0,0,0,169.14,227.83" transform="translate(-76.286 -79.048)" fill="none" stroke="#263238" stroke-linecap="round" stroke-linejoin="round" stroke-width="1"/>
      <line id="Line_96" data-name="Line 96" x1="5.232" y2="28.81" transform="translate(129.691 186.87)" fill="none" stroke="#263238" stroke-linecap="round" stroke-linejoin="round" stroke-width="1"/>
      <path id="Path_909" data-name="Path 909" d="M151.94,230.262s8.986-5.492,18.475-3.494" transform="translate(-87.034 -79.985)" fill="none" stroke="#263238" stroke-linecap="round" stroke-linejoin="round" stroke-width="1"/>
      <path id="Path_910" data-name="Path 910" d="M175.384,163.852a115.7,115.7,0,0,1-17.874,10.123c-10.107,4.566-19.5,8.9-19.5,10.594s-6.321,42-6.321,42.719,2.632,5.054,6.256,5.054a18.526,18.526,0,0,0,5.054-.471l7.54-15.29s3.607,33.717,3.12,34.432,4.582,5.3,9.148,6.5,35.391-2.649,36.366-6.012-4.534-23.545-4.534-23.545l1.446-11.374,2.4,13.974s-.244,1.917,4.339,1.2a9.441,9.441,0,0,0,6.5-4.095s-.487-27.2-.487-33.945,3.136-10.838.731-12.528-23.838-15.648-26-17.094a9.749,9.749,0,0,0-8.19-.244Z" transform="translate(-99.689 -119.52)" fill="#263238" stroke="#263238" stroke-linecap="round" stroke-linejoin="round" stroke-width="1"/>
      <path id="Path_911" data-name="Path 911" d="M133.085,200.07a11.115,11.115,0,0,0,5.054,4.582c3.607,1.625,6.971-.244,7.946.959s1.284,7.621-1.934,9.392a10.692,10.692,0,0,1-11.374-.731c-3.477-2.194-3.38-3.607-3.136-5.525S130.663,200.07,133.085,200.07Z" transform="translate(-101.035 -96.396)" fill="#fa7869" stroke="#263238" stroke-linecap="round" stroke-linejoin="round" stroke-width="1"/>
      <path id="Path_912" data-name="Path 912" d="M171.853,206.518s1.625,6.256,2.4,6.987,7.7.471,12.756-4.095a4.874,4.874,0,0,0,0-2.161c-.244-1.446-1.934-6.5-2.649-6.5s-6.5,4.875-10.838,3.624C173.527,204.406,170.878,204.114,171.853,206.518Z" transform="translate(-74.725 -95.971)" fill="#fa7869" stroke="#263238" stroke-linecap="round" stroke-linejoin="round" stroke-width="1"/>
      <line id="Line_97" data-name="Line 97" y1="20.409" x2="4.761" transform="translate(96.397 76.651)" fill="#fff" stroke="#263238" stroke-linecap="round" stroke-linejoin="round" stroke-width="1"/>
      <path id="Path_913" data-name="Path 913" d="M143.32,204.98s3.949-11.959,3.949-14.9-3.25-8.45-3.25-8.45" transform="translate(-92.421 -107.92)" fill="none" stroke="#263238" stroke-linecap="round" stroke-linejoin="round" stroke-width="1"/>
      <path id="Path_914" data-name="Path 914" d="M162.585,157.141,156.8,173.52s7.946,21.433,8.9,21.124S176.3,174.17,176.3,174.17s-2.4-13.714-4.875-19.5S162.585,157.141,162.585,157.141Z" transform="translate(-83.997 -126.052)" fill="#fff" stroke="#263238" stroke-linecap="round" stroke-linejoin="round" stroke-width="1"/>
      <path id="Path_915" data-name="Path 915" d="M185.583,140.349s7.231,5.053,7.946,7.215-1.917,4.875-1.917,4.875.244,8.125.244,10.107A7.767,7.767,0,0,1,190,166.657s3.607,5.3,2.649,6.5a4.972,4.972,0,0,1-2.892,1.446s-.471,4.875-1.446,6.012l-.959,1.2a41.971,41.971,0,0,1-.244,7.475c-.471,1.625-3.364,2.892-8.9-.244s-9.148-5.785-9.863-8.125a45.808,45.808,0,0,1-.731-8.661l-2.4-6.987-2.649,4.875a40.7,40.7,0,0,1-6.256-17.874c-1.446-11.374,11.8-15.4,17.874-15.892S185.583,140.349,185.583,140.349Z" transform="translate(-84.377 -136.218)" fill="#fff" stroke="#263238" stroke-linecap="round" stroke-linejoin="round" stroke-width="1"/>
      <path id="Path_916" data-name="Path 916" d="M193.582,147.613c-.715-2.161-7.946-7.215-7.946-7.215s-5.525-4.582-11.553-4.095-19.255,4.566-17.874,15.892a40.7,40.7,0,0,0,6.256,17.874l2.649-4.875,2.4,6.987a45.806,45.806,0,0,0,.731,8.661c.715,2.4,4.322,5.053,9.863,8.125s8.433,1.917,8.9.244a31.231,31.231,0,0,0,.276-6.24h0c-2.4-.715-3.607,3.38-5.768,2.649s-8.433-4.875-9.88-8.9-1.2-15.4-1.2-15.4a41.713,41.713,0,0,0,6.987-3.38c1.446-1.2-2.177-4.322-4.339-6.012s1.625-3.364,7.458-3.851,11.082,4.339,11.082,4.339S194.313,149.791,193.582,147.613Z" transform="translate(-84.429 -136.268)" fill="#263238" stroke="#263238" stroke-linecap="round" stroke-linejoin="round" stroke-width="1"/>
      <path id="Path_917" data-name="Path 917" d="M166.226,159.843s-.471-7.946-3.364-8.433-3.607,6.028-2.649,9.148,4.566,2.892,5.053,2.177A12.773,12.773,0,0,0,166.226,159.843Z" transform="translate(-82.114 -126.821)" fill="#fff" stroke="#263238" stroke-linecap="round" stroke-linejoin="round" stroke-width="1"/>
      <path id="Path_918" data-name="Path 918" d="M181.475,159.85s-6.971.487-9.62.487-3.38,1.2-1.446,3.364a10.3,10.3,0,0,0,7.215,2.649c.975-.244,2.4-.487,2.4-.487S183.425,162.97,181.475,159.85Z" transform="translate(-76.174 -121.531)" fill="#263238" stroke="#263238" stroke-linecap="round" stroke-linejoin="round" stroke-width="1"/>
      <ellipse id="Ellipse_123" data-name="Ellipse 123" cx="1.089" cy="1.934" rx="1.089" ry="1.934" transform="translate(99.289 29.155)" fill="#263238"/>
      <path id="Path_919" data-name="Path 919" d="M177.6,153.811s-.715-3.364-5.541-2.161" transform="translate(-74.461 -126.817)" fill="none" stroke="#263238" stroke-linecap="round" stroke-linejoin="round" stroke-width="1"/>
    </g>
  </g>
</svg>
